<svg width="87" height="18" fill="none" xmlns="http://www.w3.org/2000/svg"><path fill-rule="evenodd" clip-rule="evenodd" d="M82.841 4.832h-6.795v6.593l1.014 2.333h2.492v-2.71h2.058c.275 0 .507.03.68.087a.815.815 0 01.406.275c.087.13.145.305.174.522.015.188.03.362.03.536 0 .174 0 .333.014.493 0 .16.029.304.043.434.03.13.073.261.13.363h3.84v-.145a.641.641 0 01-.29-.391 3.041 3.041 0 01-.115-.74c-.015-.304-.044-.666-.058-1.1a7.128 7.128 0 00-.058-.667 1.994 1.994 0 00-.16-.522 1.355 1.355 0 00-.319-.391 2.53 2.53 0 00-.565-.319c.305-.116.566-.29.783-.507.217-.217.391-.478.493-.768a2.63 2.63 0 00.173-.97c0-.435-.087-.812-.26-1.145a1.99 1.99 0 00-.754-.797c-.275-.174-.666-.29-1.16-.363-.506-.072-1.1-.101-1.796-.101zM4.815.949C.497 3.137-1.242 8.396.945 12.714a8.747 8.747 0 0011.766 3.855c4.318-2.188 6.057-7.448 3.87-11.766A8.747 8.747 0 004.814.949zm74.737 7.737V7.092h1.927a4.6 4.6 0 01.84.058.965.965 0 01.508.218c.116.116.174.275.174.507 0 .217-.058.391-.16.507-.101.116-.275.203-.478.246a4.045 4.045 0 01-.797.073h-2.014v-.015zm-10.737 2l1.13-3.144 1.073 3.144h-2.203zm-4.84 3.072h3.696l.318-.884h3.797l.29.884h3.738L72.22 4.832h-4.39l-3.854 8.926zm-11.229-2.724c.015 1.42 1.072 2.245 2.333 2.622.768.232 1.71.348 2.84.362 1.362 0 2.492-.101 3.39-.318.899-.218 1.566-.565 2.015-1.03.449-.463.666-1.071.666-1.81 0-.74-.246-1.319-.724-1.754-.493-.434-1.217-.71-2.203-.854l-3.144-.45c-.29-.043-.55-.087-.739-.13a1.112 1.112 0 01-.435-.188.35.35 0 01-.145-.305c0-.174.102-.318.32-.42.217-.101.52-.16.941-.16.536 0 .942.073 1.232.218.29.145.449.348.492.638H63.6c-.043-.667-.29-1.203-.71-1.623-.42-.42-1.043-.725-1.855-.913-.811-.188-1.825-.29-3.028-.29-1.16 0-2.13.102-2.883.29-.754.188-1.334.507-1.696.927-.377.42-.55.971-.55 1.652 0 .754.275 1.348.811 1.797.536.449 1.348.724 2.405.87l2.58.318c.405.058.724.13.927.246.203.116.304.276.304.464 0 .217-.116.377-.348.478-.231.102-.58.16-1.043.16-.478 0-.84-.073-1.116-.203-.26-.13-.42-.32-.449-.55h-4.202v-.044zm-7.868 2.724h8.202c-.87-.536-1.334-1.45-1.435-2.71h-3.304V4.832h-3.463v8.926zm-8.157-8.926h-3.449v4.68c0 1.029.189 1.87.565 2.536.377.666.957 1.159 1.739 1.463.782.32 1.768.479 2.97.479 1.203 0 2.188-.16 2.97-.464.783-.319 1.348-.812 1.725-1.464.377-.666.565-1.507.565-2.55v-4.68h-3.448v4.361c0 .42-.03.783-.087 1.087-.058.304-.145.55-.29.74a1.15 1.15 0 01-.55.42c-.233.086-.537.13-.885.13-.347 0-.652-.044-.883-.13a1.265 1.265 0 01-.566-.42 1.924 1.924 0 01-.29-.74 5.895 5.895 0 01-.086-1.087V4.832zm-9.607 1.913c.348 0 .623.029.855.087.217.058.391.144.493.29.101.144.159.333.159.593 0 .261-.058.45-.16.595-.1.144-.275.246-.492.29a2.93 2.93 0 01-.855.072h-1.898V6.745h1.898zm-5.347 7.013h3.449v-3.13h3.217c.855 0 1.564-.116 2.159-.348.58-.232 1.028-.565 1.333-.985.304-.435.449-.956.449-1.565s-.16-1.116-.45-1.55c-.304-.435-.738-.754-1.332-.986-.58-.232-1.304-.347-2.16-.347h-6.665v8.91z" fill="#fff"/><path fill-rule="evenodd" clip-rule="evenodd" d="M5.9 15.307c4.014 1.71 8.694-.087 10.375-3.984a7.38 7.38 0 00.58-2.232l-9.346 2.493L5.9 15.307zM16.898 8.41a7.843 7.843 0 00-.58-3.057 8.07 8.07 0 00-4.26-4.318l-1.97 4.55L.64 7.845v.594c5.433-.043 10.823-.043 16.257-.029z" fill="#FFD218"/></svg>