<svg width="87" height="18" viewBox="0 0 87 18" fill="none" xmlns="http://www.w3.org/2000/svg">
<path fill-rule="evenodd" clip-rule="evenodd" d="M82.8412 4.83202H76.0456V11.4248L77.0599 13.7576H79.5521V11.0481H81.6096C81.8849 11.0481 82.1167 11.0771 82.2906 11.135C82.4645 11.193 82.5949 11.2799 82.6963 11.4103C82.7833 11.5407 82.8412 11.7146 82.8702 11.9319C82.8847 12.1203 82.8992 12.2942 82.8992 12.4681C82.8992 12.6419 82.8992 12.8013 82.9137 12.9607C82.9137 13.1201 82.9427 13.265 82.9572 13.3954C82.9861 13.5258 83.0296 13.6562 83.0876 13.7576H86.9273V13.6127C86.7969 13.5403 86.6955 13.4099 86.6375 13.2215C86.5796 13.0332 86.5361 12.7868 86.5216 12.4826C86.5071 12.1783 86.4781 11.816 86.4636 11.3813C86.4492 11.1205 86.4347 10.9032 86.4057 10.7148C86.3767 10.5265 86.3187 10.3526 86.2463 10.1932C86.1738 10.0483 86.0579 9.91789 85.9275 9.80197C85.7826 9.68606 85.5943 9.58463 85.3624 9.4832C85.6667 9.36728 85.9275 9.19341 86.1449 8.97606C86.3622 8.75872 86.5361 8.4979 86.6375 8.20811C86.7534 7.91832 86.8114 7.58506 86.8114 7.2373C86.8114 6.80262 86.7245 6.42589 86.5506 6.09262C86.3767 5.75936 86.1304 5.49855 85.7971 5.29569C85.5218 5.12182 85.1306 5.0059 84.6379 4.93345C84.1308 4.861 83.5367 4.83202 82.8412 4.83202ZM4.81452 0.948802C0.496606 3.13674 -1.24215 8.39647 0.945785 12.7144C3.13372 17.0323 8.39346 18.7566 12.7114 16.5686C17.0293 14.3807 18.768 9.12096 16.5801 4.80305C14.3922 0.485134 9.13243 -1.23913 4.81452 0.948802ZM79.5521 8.68627V7.09241H81.4792C81.8125 7.09241 82.1023 7.1069 82.3196 7.15037C82.5369 7.17935 82.7108 7.26628 82.8267 7.36771C82.9427 7.48363 83.0006 7.64301 83.0006 7.87485C83.0006 8.09219 82.9427 8.26607 82.8412 8.38199C82.7398 8.4979 82.5659 8.58484 82.3631 8.62831C82.1457 8.67178 81.8849 8.70076 81.5661 8.70076H79.5521V8.68627ZM68.8153 10.6858L69.9454 7.54159L71.0177 10.6858H68.8153ZM63.9757 13.7576H67.6706L67.9893 12.8738H71.7856L72.0754 13.7576H75.8138L72.2203 4.83202H67.83L63.9757 13.7576ZM52.7463 11.0336C52.7607 12.4536 53.8185 13.2795 55.0791 13.6562C55.847 13.888 56.7889 14.004 57.9191 14.0185C59.2811 14.0185 60.4113 13.917 61.3096 13.6997C62.208 13.4823 62.8745 13.1346 63.3237 12.6709C63.7729 12.2073 63.9902 11.5987 63.9902 10.8597C63.9902 10.1207 63.7439 9.54116 63.2657 9.10647C62.7731 8.67178 62.0486 8.39648 61.0633 8.25158L57.9191 7.8024C57.6293 7.75893 57.3684 7.71546 57.1801 7.67199C56.9917 7.62852 56.8323 7.55608 56.7454 7.48363C56.644 7.41118 56.6005 7.30975 56.6005 7.17935C56.6005 7.00547 56.7019 6.86058 56.9193 6.75915C57.1366 6.65772 57.4409 6.59976 57.8611 6.59976C58.3972 6.59976 58.8029 6.67221 59.0927 6.81711C59.3825 6.962 59.5419 7.16486 59.5854 7.45465H63.599C63.5555 6.78813 63.3092 6.25201 62.889 5.83181C62.4688 5.41161 61.8457 5.10733 61.0343 4.91896C60.2229 4.7306 59.2086 4.62917 58.006 4.62917C56.8468 4.62917 55.876 4.7306 55.1225 4.91896C54.3691 5.10733 53.7895 5.4261 53.4273 5.8463C53.0505 6.2665 52.8767 6.8171 52.8767 7.49812C52.8767 8.25158 53.152 8.84566 53.6881 9.29484C54.2242 9.74401 55.0356 10.0193 56.0934 10.1642L58.6725 10.483C59.0782 10.5409 59.397 10.6134 59.5998 10.7293C59.8027 10.8452 59.9041 11.0046 59.9041 11.193C59.9041 11.4103 59.7882 11.5697 59.5564 11.6711C59.3245 11.7726 58.9768 11.8305 58.5131 11.8305C58.035 11.8305 57.6727 11.7581 57.3974 11.6277C57.1366 11.4973 56.9772 11.3089 56.9482 11.0771H52.7463V11.0336ZM44.8784 13.7576H53.0795C52.2101 13.2215 51.7465 12.3087 51.645 11.0481H48.3414V4.83202H44.8784V13.7576ZM36.7207 4.83202H33.2722V9.51218C33.2722 10.5409 33.4605 11.3813 33.8373 12.0479C34.214 12.7144 34.7936 13.207 35.576 13.5113C36.3585 13.8301 37.3438 13.9895 38.5464 13.9895C39.749 13.9895 40.7343 13.8301 41.5168 13.5258C42.2992 13.207 42.8643 12.7144 43.241 12.0624C43.6178 11.3958 43.8061 10.5554 43.8061 9.51218V4.83202H40.3576V9.19341C40.3576 9.61361 40.3286 9.97585 40.2707 10.2801C40.2127 10.5844 40.1258 10.8307 39.9809 11.0191C39.8505 11.2075 39.6621 11.3524 39.4303 11.4393C39.1984 11.5262 38.8942 11.5697 38.5464 11.5697C38.1987 11.5697 37.8944 11.5262 37.6625 11.4393C37.4307 11.3524 37.2423 11.2075 37.0974 11.0191C36.967 10.8307 36.8656 10.5844 36.8076 10.2801C36.7497 9.97585 36.7207 9.61361 36.7207 9.19341V4.83202ZM27.1141 6.74466C27.4618 6.74466 27.7371 6.77364 27.969 6.8316C28.1863 6.88955 28.3602 6.97649 28.4616 7.12139C28.563 7.26629 28.621 7.45465 28.621 7.71546C28.621 7.97627 28.563 8.16464 28.4616 8.30954C28.3602 8.45443 28.1863 8.55586 27.969 8.59933C27.7516 8.65729 27.4618 8.68627 27.1141 8.67178H25.2159V6.74466H27.1141ZM21.7674 13.7576H25.2159V10.6279H28.4326C29.2875 10.6279 29.9975 10.512 30.5916 10.2801C31.1712 10.0483 31.6204 9.71503 31.9246 9.29484C32.2289 8.86015 32.3738 8.33852 32.3738 7.72995C32.3738 7.12139 32.2144 6.61425 31.9246 6.17956C31.6204 5.74487 31.1857 5.4261 30.5916 5.19426C30.012 4.96243 29.2875 4.84651 28.4326 4.84651H21.7674V13.7576Z" fill="#01274F"/>
<path fill-rule="evenodd" clip-rule="evenodd" d="M5.90122 15.3081C9.91485 17.0178 14.595 15.2211 16.2758 11.3234C16.5801 10.6134 16.7829 9.87444 16.8554 9.092L7.50957 11.5842L5.90122 15.3081ZM16.8989 8.41099C16.9133 7.39672 16.725 6.35346 16.3193 5.35368C15.4934 3.35411 13.9285 1.84719 12.0593 1.03577L10.0887 5.58551L0.641479 7.8459V8.43997C6.07509 8.3965 11.4652 8.3965 16.8989 8.41099Z" fill="white"/>
</svg>
