<svg width="26" height="34" viewBox="0 0 26 34" fill="none" xmlns="http://www.w3.org/2000/svg">
<path d="M18.3088 0H1.15942C0.681967 0 0.294922 0.397679 0.294922 1.16936V33.3929C0.294922 33.6023 0.681967 34 1.15942 34H24.8395C25.317 34 25.704 33.6023 25.704 33.3929V7.8795C25.704 7.45693 25.6491 7.32093 25.5522 7.22075L18.6763 0.156036C18.5788 0.0564643 18.4465 0 18.3088 0Z" fill="#E9E9E0"/>
<path d="M18.6133 0.0917969V7.28583H25.615L18.6133 0.0917969Z" fill="#D9D7CA"/>
<path d="M7.9845 20.2326C7.77887 20.2326 7.5815 20.164 7.4131 20.0347C6.79796 19.5605 6.71523 19.0329 6.75423 18.6735C6.86178 17.6851 8.05128 16.6505 10.2908 15.5965C11.1795 13.5953 12.0251 11.1297 12.5292 9.06969C11.9395 7.75098 11.3663 6.04005 11.784 5.03644C11.9306 4.68491 12.1132 4.41534 12.4541 4.29876C12.5889 4.25262 12.9292 4.19434 13.0545 4.19434C13.3523 4.19434 13.6141 4.58837 13.7996 4.83123C13.974 5.05951 14.3693 5.54341 13.5792 8.96102C14.3758 10.6513 15.5044 12.3732 16.5858 13.5522C17.3605 13.4083 18.027 13.3349 18.5701 13.3349C19.4954 13.3349 20.0562 13.5565 20.2849 14.0131C20.474 14.3907 20.3966 14.8321 20.0544 15.3245C19.7253 15.7974 19.2715 16.0476 18.7426 16.0476C18.0241 16.0476 17.1873 15.5813 16.2543 14.6603C14.5779 15.0203 12.6202 15.6627 11.0377 16.3736C10.5437 17.4507 10.0704 18.3183 9.6296 18.9546C9.02391 19.8258 8.50155 20.2326 7.9845 20.2326ZM9.5575 17.1204C8.29473 17.8496 7.78005 18.4488 7.74282 18.7864C7.73691 18.8423 7.72096 18.9892 7.9975 19.2066C8.08555 19.178 8.59964 18.937 9.5575 17.1204ZM17.6157 14.4235C18.0973 14.8042 18.2149 14.9966 18.5299 14.9966C18.6681 14.9966 19.0623 14.9906 19.2449 14.7289C19.3329 14.602 19.3672 14.5206 19.3808 14.4769C19.3081 14.4374 19.2118 14.3573 18.6865 14.3573C18.3881 14.3579 18.0128 14.3713 17.6157 14.4235ZM13.2016 10.4273C12.7791 11.9293 12.2213 13.551 11.6216 15.0197C12.8566 14.5273 14.1991 14.0974 15.4601 13.7933C14.6624 12.8413 13.8652 11.6525 13.2016 10.4273ZM12.843 5.28962C12.7851 5.30966 12.0571 6.35637 12.8997 7.24219C13.4605 5.95809 12.8684 5.28112 12.843 5.28962Z" fill="#CC4B4C"/>
<path d="M24.8395 34.0001H1.15942C0.681967 34.0001 0.294922 33.6025 0.294922 33.1119V23.6787H25.704V33.1119C25.704 33.6025 25.317 34.0001 24.8395 34.0001Z" fill="#CC4B4C"/>
<path d="M6.72749 32.1781H5.75781V26.0605H7.47027C7.72318 26.0605 7.97372 26.1018 8.22131 26.185C8.4689 26.2682 8.69109 26.3927 8.88786 26.5584C9.08463 26.7242 9.24358 26.9251 9.36472 27.1601C9.48586 27.395 9.54672 27.6592 9.54672 27.953C9.54672 28.2633 9.49531 28.5438 9.39309 28.7957C9.29086 29.0477 9.14786 29.2596 8.96468 29.4308C8.78149 29.602 8.56049 29.735 8.30227 29.8291C8.04404 29.9232 7.75804 29.9699 7.44604 29.9699H6.7269V32.1781H6.72749ZM6.72749 26.8158V29.2395H7.61622C7.7344 29.2395 7.8514 29.2189 7.96781 29.177C8.08363 29.1357 8.18999 29.0677 8.2869 28.9736C8.38381 28.8795 8.46181 28.7484 8.5209 28.5796C8.57999 28.4108 8.60954 28.2019 8.60954 27.953C8.60954 27.8534 8.59595 27.7381 8.56936 27.6088C8.54218 27.4788 8.48722 27.3544 8.4039 27.2354C8.31999 27.1164 8.20299 27.0168 8.05231 26.9367C7.90163 26.8565 7.7019 26.8164 7.45431 26.8164H6.72749V26.8158Z" fill="white"/>
<path d="M15.4926 28.9493C15.4926 29.4527 15.44 29.8831 15.3348 30.2401C15.2296 30.5971 15.0967 30.8958 14.9348 31.1369C14.7729 31.3779 14.5915 31.5673 14.3894 31.7058C14.1873 31.8442 13.9923 31.9474 13.8038 32.0172C13.6153 32.0864 13.4427 32.1308 13.2867 32.1502C13.1307 32.1684 13.0149 32.1781 12.9393 32.1781H10.6855V26.0605H12.479C12.98 26.0605 13.4203 26.1425 13.7996 26.3052C14.179 26.4679 14.4945 26.6859 14.7451 26.9567C14.9956 27.2275 15.1824 27.5365 15.3065 27.882C15.4305 28.228 15.4926 28.5838 15.4926 28.9493ZM12.6166 31.4477C13.2737 31.4477 13.7476 31.2322 14.0384 30.8005C14.3291 30.3688 14.4745 29.7435 14.4745 28.9244C14.4745 28.67 14.4449 28.4181 14.3858 28.1692C14.3261 27.9202 14.2121 27.695 14.0425 27.4928C13.8729 27.2906 13.6425 27.1273 13.3517 27.0028C13.061 26.8784 12.684 26.8158 12.2207 26.8158H11.6552V31.4477H12.6166Z" fill="white"/>
<path d="M17.8841 26.8158V28.7417H20.3724V29.4223H17.8841V32.1781H16.8984V26.0605H20.6223V26.8158H17.8841Z" fill="white"/>
</svg>
