<svg width="100" height="100" viewBox="0 0 100 100" fill="none" xmlns="http://www.w3.org/2000/svg">
<path d="M91.6654 46.1668V50.0001C91.6602 58.9852 88.7508 67.7279 83.3709 74.9244C77.9911 82.1208 70.429 87.3854 61.8127 89.933C53.1963 92.4806 43.9873 92.1747 35.559 89.0609C27.1307 85.947 19.9348 80.1922 15.0444 72.6545C10.154 65.1169 7.83116 56.2004 8.42235 47.2347C9.01354 38.2691 12.4871 29.7348 18.3249 22.9046C24.1627 16.0743 32.052 11.3142 40.8162 9.33403C49.5803 7.35388 58.7498 8.25982 66.9571 11.9168" stroke="url(#paint0_linear)" stroke-width="8.33333" stroke-linecap="round" stroke-linejoin="round"/>
<path d="M91.6667 16.6667L50 58.3751L37.5 45.8751" stroke="url(#paint1_linear)" stroke-width="8.33333" stroke-linecap="round" stroke-linejoin="round"/>
<defs>
<linearGradient id="paint0_linear" x1="49.9987" y1="8.30957" x2="49.9987" y2="91.6429" gradientUnits="userSpaceOnUse">
<stop stop-color="#FFD519"/>
<stop offset="1" stop-color="#FF7900"/>
</linearGradient>
<linearGradient id="paint1_linear" x1="64.5833" y1="16.6667" x2="64.5833" y2="58.3751" gradientUnits="userSpaceOnUse">
<stop stop-color="#FFD519"/>
<stop offset="1" stop-color="#FF7900"/>
</linearGradient>
</defs>
</svg>
