<svg width="150" height="30" viewBox="0 0 150 30" fill="none" xmlns="http://www.w3.org/2000/svg">
<path fill-rule="evenodd" clip-rule="evenodd" d="M142.698 8.50806H131.04V19.6594L132.78 23.6052H137.055V19.0222H140.585C141.057 19.0222 141.455 19.0712 141.753 19.1692C142.052 19.2672 142.275 19.4143 142.449 19.6349C142.598 19.8554 142.698 20.1495 142.748 20.5172C142.772 20.8358 142.797 21.1299 142.797 21.424C142.797 21.7181 142.797 21.9877 142.822 22.2573C142.822 22.5269 142.872 22.7719 142.897 22.9925C142.947 23.2131 143.021 23.4337 143.12 23.6052H149.707V23.3602C149.484 23.2376 149.31 23.017 149.21 22.6984C149.111 22.3798 149.036 21.9632 149.012 21.4485C148.987 20.9338 148.937 20.3211 148.912 19.5859C148.887 19.1447 148.862 18.7771 148.813 18.4585C148.763 18.1399 148.664 17.8458 148.539 17.5762C148.415 17.3311 148.216 17.1105 147.992 16.9144C147.744 16.7184 147.421 16.5468 147.023 16.3753C147.545 16.1792 147.992 15.8851 148.365 15.5175C148.738 15.1498 149.036 14.7087 149.21 14.2185C149.409 13.7284 149.509 13.1647 149.509 12.5765C149.509 11.8412 149.359 11.204 149.061 10.6403C148.763 10.0766 148.34 9.63545 147.769 9.29233C147.296 8.99823 146.625 8.80216 145.78 8.67962C144.91 8.55708 143.891 8.50806 142.698 8.50806ZM8.84512 1.93981C1.43785 5.64057 -1.54494 14.5371 2.20841 21.8406C5.96175 29.1441 14.9847 32.0606 22.392 28.3599C29.7992 24.6591 32.782 15.7625 29.0287 8.45904C25.2753 1.15554 16.2524 -1.76096 8.84512 1.93981ZM137.055 15.0273V12.3314H140.361C140.933 12.3314 141.43 12.3559 141.803 12.4294C142.176 12.4784 142.474 12.6255 142.673 12.797C142.872 12.9931 142.971 13.2627 142.971 13.6548C142.971 14.0224 142.872 14.3165 142.698 14.5126C142.524 14.7087 142.226 14.8557 141.878 14.9293C141.505 15.0028 141.057 15.0518 140.511 15.0518H137.055V15.0273ZM118.637 18.4095L120.576 13.0911L122.415 18.4095H118.637ZM110.335 23.6052H116.673L117.22 22.1102H123.732L124.229 23.6052H130.642L124.478 8.50806H116.946L110.335 23.6052ZM91.0708 18.9977C91.0956 21.3995 92.9101 22.7965 95.0727 23.4337C96.3901 23.8258 98.0058 24.0219 99.9446 24.0464C102.281 24.0464 104.22 23.8748 105.761 23.5072C107.302 23.1396 108.446 22.5514 109.216 21.7671C109.987 20.9828 110.359 19.9535 110.359 18.7036C110.359 17.4536 109.937 16.4733 109.117 15.738C108.272 15.0028 107.029 14.5371 105.338 14.292L99.9446 13.5323C99.4474 13.4588 99 13.3852 98.6769 13.3117C98.3538 13.2382 98.0803 13.1156 97.9312 12.9931C97.7572 12.8706 97.6826 12.699 97.6826 12.4784C97.6826 12.1843 97.8566 11.9392 98.2295 11.7677C98.6023 11.5961 99.1243 11.4981 99.8451 11.4981C100.765 11.4981 101.461 11.6206 101.958 11.8657C102.455 12.1108 102.729 12.4539 102.803 12.9441H109.688C109.614 11.8167 109.191 10.9099 108.47 10.1991C107.75 9.48839 106.681 8.97372 105.289 8.65511C103.897 8.3365 102.157 8.16494 100.094 8.16494C98.1052 8.16494 96.4398 8.3365 95.1472 8.65511C93.8547 8.97372 92.8604 9.5129 92.239 10.2236C91.5928 10.9344 91.2945 11.8657 91.2945 13.0176C91.2945 14.292 91.7667 15.2969 92.6864 16.0566C93.6061 16.8164 94.9981 17.2821 96.8126 17.5272L101.237 18.0663C101.933 18.1644 102.48 18.2869 102.828 18.483C103.176 18.679 103.35 18.9486 103.35 19.2672C103.35 19.6349 103.151 19.9045 102.753 20.076C102.356 20.2476 101.759 20.3456 100.964 20.3456C100.143 20.3456 99.522 20.2231 99.0497 20.0025C98.6023 19.7819 98.3289 19.4633 98.2792 19.0712H91.0708V18.9977ZM77.5736 23.6052H91.6425C90.1511 22.6984 89.3557 21.1544 89.1817 19.0222H83.5144V8.50806H77.5736V23.6052ZM63.5794 8.50806H57.6635V16.4243C57.6635 18.1644 57.9866 19.5859 58.6329 20.7132C59.2792 21.8406 60.2734 22.6739 61.6157 23.1886C62.9579 23.7278 64.6482 23.9974 66.7113 23.9974C68.7744 23.9974 70.4646 23.7278 71.8069 23.2131C73.1492 22.6739 74.1186 21.8406 74.7648 20.7377C75.4111 19.6104 75.7342 18.1889 75.7342 16.4243V8.50806H69.8184V15.8851C69.8184 16.5958 69.7687 17.2085 69.6692 17.7232C69.5698 18.2379 69.4207 18.6545 69.1721 18.9731C68.9484 19.2918 68.6253 19.5368 68.2275 19.6839C67.8298 19.8309 67.3078 19.9045 66.7113 19.9045C66.1147 19.9045 65.5927 19.8309 65.195 19.6839C64.7973 19.5368 64.4742 19.2918 64.2256 18.9731C64.0019 18.6545 63.8279 18.2379 63.7285 17.7232C63.6291 17.2085 63.5794 16.5958 63.5794 15.8851V8.50806ZM47.0994 11.7432C47.696 11.7432 48.1683 11.7922 48.566 11.8902C48.9388 11.9883 49.2371 12.1353 49.4111 12.3804C49.5851 12.6255 49.6845 12.9441 49.6845 13.3852C49.6845 13.8264 49.5851 14.145 49.4111 14.3901C49.2371 14.6352 48.9388 14.8067 48.566 14.8802C48.1931 14.9783 47.696 15.0273 47.0994 15.0028H43.8432V11.7432H47.0994ZM37.9273 23.6052H43.8432V18.3114H49.3614C50.8279 18.3114 52.0459 18.1154 53.065 17.7232C54.0593 17.3311 54.8298 16.7674 55.3518 16.0566C55.8738 15.3214 56.1224 14.4391 56.1224 13.4097C56.1224 12.3804 55.849 11.5226 55.3518 10.7873C54.8298 10.0521 54.0841 9.5129 53.065 9.12077C52.0708 8.72863 50.8279 8.53257 49.3614 8.53257H37.9273V23.6052Z" fill="#0066B3"/>
<path fill-rule="evenodd" clip-rule="evenodd" d="M10.7104 26.2277C17.5957 29.1197 25.6244 26.0806 28.5078 19.4879C29.0298 18.287 29.3778 17.037 29.502 15.7136L13.4695 19.929L10.7104 26.2277ZM29.5766 14.5617C29.6015 12.8461 29.2783 11.0815 28.5823 9.39042C27.1655 6.00826 24.481 3.45938 21.2745 2.08691L17.894 9.78255L1.6875 13.6059V14.6107C11.0087 14.5372 20.2554 14.5372 29.5766 14.5617Z" fill="white"/>
</svg>
